<?xml version="1.0" encoding="UTF-8" standalone="no"?>
<svg
   xmlns:dc="http://purl.org/dc/elements/1.1/"
   xmlns:cc="http://creativecommons.org/ns#"
   xmlns:rdf="http://www.w3.org/1999/02/22-rdf-syntax-ns#"
   xmlns:svg="http://www.w3.org/2000/svg"
   xmlns="http://www.w3.org/2000/svg"
   xmlns:sodipodi="http://sodipodi.sourceforge.net/DTD/sodipodi-0.dtd"
   xmlns:inkscape="http://www.inkscape.org/namespaces/inkscape"
   width="64.000008mm"
   height="50.000004mm"
   viewBox="0 0 64.000008 50.000004"
   version="1.1"
   id="svg3241"
   inkscape:version="1.0.2-2 (e86c870879, 2021-01-15)"
   sodipodi:docname="image.svg">
  <defs
     id="defs3235" />
  <sodipodi:namedview
     id="base"
     pagecolor="#ffffff"
     bordercolor="#666666"
     borderopacity="1.0"
     inkscape:pageopacity="0.0"
     inkscape:pageshadow="2"
     inkscape:zoom="1.979899"
     inkscape:cx="191.44941"
     inkscape:cy="85.774198"
     inkscape:document-units="mm"
     inkscape:current-layer="layer1"
     inkscape:document-rotation="0"
     showgrid="false"
     fit-margin-top="0"
     fit-margin-left="0"
     fit-margin-right="0"
     fit-margin-bottom="0" />
  <metadata
     id="metadata3238">
    <rdf:RDF>
      <cc:Work
         rdf:about="">
        <dc:format>image/svg+xml</dc:format>
        <dc:type
           rdf:resource="http://purl.org/dc/dcmitype/StillImage" />
        <dc:title></dc:title>
      </cc:Work>
    </rdf:RDF>
  </metadata>
  <g
     inkscape:label="Layer 1"
     inkscape:groupmode="layer"
     id="layer1"
     transform="translate(-11.601103,-21.845695)">
    <path
       id="path2625"
       style="color:#000000;font-style:normal;font-variant:normal;font-weight:normal;font-stretch:normal;font-size:medium;line-height:normal;font-family:sans-serif;font-variant-ligatures:normal;font-variant-position:normal;font-variant-caps:normal;font-variant-numeric:normal;font-variant-alternates:normal;font-variant-east-asian:normal;font-feature-settings:normal;font-variation-settings:normal;text-indent:0;text-align:start;text-decoration:none;text-decoration-line:none;text-decoration-style:solid;text-decoration-color:#000000;letter-spacing:normal;word-spacing:normal;text-transform:none;writing-mode:lr-tb;direction:ltr;text-orientation:mixed;dominant-baseline:auto;baseline-shift:baseline;text-anchor:start;white-space:normal;shape-padding:0;shape-margin:0;inline-size:0;clip-rule:nonzero;display:inline;overflow:visible;visibility:visible;opacity:1;isolation:auto;mix-blend-mode:normal;color-interpolation:sRGB;color-interpolation-filters:linearRGB;solid-color:#000000;solid-opacity:1;vector-effect:none;fill:#ff0000;fill-opacity:1;fill-rule:nonzero;stroke:none;stroke-width:1;stroke-linecap:round;stroke-linejoin:miter;stroke-miterlimit:4;stroke-dasharray:none;stroke-dashoffset:0;stroke-opacity:1;color-rendering:auto;image-rendering:auto;shape-rendering:auto;text-rendering:auto;enable-background:accumulate;stop-color:#000000;stop-opacity:1"
       d="m 32.713695,34.332407 c -1.92633,-0.0019 -3.989115,0.64702 -5.236167,2.339698 -1.226112,1.327875 -1.76035,3.092951 -1.548068,4.848163 l -0.0059,-0.05945 c 0.02603,0.664871 -0.119073,1.72861 0.623121,2.602435 0.754785,1.58186 2.213086,2.732255 3.728992,3.375304 l 0.05453,0.02302 0.05841,0.01342 c 1.141612,0.283666 2.432257,0.423974 3.690047,0.230135 1.240442,-0.191168 2.463198,-0.741932 3.343437,-1.800802 2.153299,-1.922029 2.859276,-5.162939 1.405917,-7.724841 -1.092527,-2.318778 -3.482522,-3.88466 -6.114379,-3.847079 z m 3.944954,-12.486712 -0.74757,0.01167 h -0.01185 c -5.71327,0.08315 -11.486403,-0.157118 -17.273997,0.243559 l -0.02731,0.0021 -0.02731,0.0035 c -3.014194,0.429256 -5.830781,2.502924 -6.556061,5.57699 l -0.0021,0.0096 -0.0021,0.0096 c -0.631961,3.015238 -0.255586,6.030571 -0.385378,8.850317 l -0.0021,0.01726 v 0.01725 c 0.02988,9.510785 -0.141593,19.04622 0.161261,28.586699 l 0.0021,0.115182 0.03915,0.107572 c 0.316289,0.884509 0.532838,2.092402 1.384372,3.123642 1.921916,2.761259 5.50754,3.361288 8.464919,3.199248 h 5.14e-4 c 14.855834,0.09938 29.724143,0.234609 44.593582,-0.02131 1.870352,-0.01832 3.989763,-0.106507 5.755937,-1.397926 2.964076,-1.911933 3.618279,-5.576889 3.472008,-8.599655 0.104553,-10.759774 0.208171,-21.535997 -0.10304,-32.310613 v -0.0132 -0.0137 c -0.211554,-3.255415 -2.490769,-6.340302 -5.869285,-7.04796 l -0.02731,-0.0056 -0.02731,-0.004 C 64.623106,21.650202 59.772722,21.979718 55.042928,21.862947 h -0.0098 -0.0078 c -6.123577,-0.0094 -12.245365,-0.0067 -18.366761,-0.0056 z m 30.951823,6.740996 c 0.939147,0.479646 1.579805,1.490746 1.398282,2.491406 l -0.01184,0.06698 v 0.06901 c 0.07505,8.693261 0.09888,17.38976 -0.07573,26.066376 -1.320393,-1.132789 -2.57628,-2.369945 -4.005766,-3.570673 l 0.01391,0.0096 c -2.971053,-2.6112 -5.742033,-5.546786 -8.946127,-8.069908 l -0.02113,-0.01725 -0.02163,-0.01573 c -2.425014,-1.646469 -5.772778,-1.242644 -7.861091,0.711904 -3.866798,3.3142 -7.613684,6.74624 -11.473235,10.018384 -0.121918,-0.04593 -0.234906,-0.07482 -0.44978,-0.272481 -0.286637,-0.263683 -0.600759,-0.640834 -1.06803,-0.940745 0.0094,0.0077 0.01891,0.01615 0.02833,0.02385 l -0.08192,-0.05936 c 0.01864,0.01141 0.03542,0.02386 0.05358,0.03552 -1.859954,-1.53267 -3.687546,-4.026465 -6.794607,-4.385075 l -0.07986,-0.0076 -0.07831,0.0076 c -3.355435,0.315761 -5.331111,3.182619 -7.350515,4.750413 l -0.0078,0.0061 -0.0062,0.0056 C 19.878104,56.240666 19.1022,56.943805 18.303688,57.6453 18.087104,51.035346 18.24989,44.384871 18.208375,37.717626 v -0.004 c -4e-6,-6.42e-4 4e-6,-0.0014 0,-0.0021 l 0.02731,-8.058245 c 0.246469,-0.287769 0.492562,-0.57468 0.730054,-0.749959 0.292062,-0.215553 0.538728,-0.314704 0.882556,-0.293793 l 0.04482,0.0021 0.04276,-0.0021 z" />
  </g>
</svg>
