<?xml version="1.0" encoding="UTF-8" standalone="no"?>
<svg
   xmlns:dc="http://purl.org/dc/elements/1.1/"
   xmlns:cc="http://creativecommons.org/ns#"
   xmlns:rdf="http://www.w3.org/1999/02/22-rdf-syntax-ns#"
   xmlns:svg="http://www.w3.org/2000/svg"
   xmlns="http://www.w3.org/2000/svg"
   xmlns:sodipodi="http://sodipodi.sourceforge.net/DTD/sodipodi-0.dtd"
   xmlns:inkscape="http://www.inkscape.org/namespaces/inkscape"
   width="64.000015mm"
   height="41.999985mm"
   viewBox="0 0 64.000015 41.999985"
   version="1.1"
   id="svg3854"
   inkscape:version="1.0.2-2 (e86c870879, 2021-01-15)"
   sodipodi:docname="text.svg">
  <defs
     id="defs3848" />
  <sodipodi:namedview
     id="base"
     pagecolor="#ffffff"
     bordercolor="#666666"
     borderopacity="1.0"
     inkscape:pageopacity="0.0"
     inkscape:pageshadow="2"
     inkscape:zoom="1.979899"
     inkscape:cx="260.64345"
     inkscape:cy="108.05531"
     inkscape:document-units="mm"
     inkscape:current-layer="layer1"
     inkscape:document-rotation="0"
     showgrid="false"
     showborder="true"
     fit-margin-top="0"
     fit-margin-left="0"
     fit-margin-right="0"
     fit-margin-bottom="0" />
  <metadata
     id="metadata3851">
    <rdf:RDF>
      <cc:Work
         rdf:about="">
        <dc:format>image/svg+xml</dc:format>
        <dc:type
           rdf:resource="http://purl.org/dc/dcmitype/StillImage" />
        <dc:title></dc:title>
      </cc:Work>
    </rdf:RDF>
  </metadata>
  <g
     inkscape:label="Layer 1"
     inkscape:groupmode="layer"
     id="layer1"
     transform="translate(-6.9211671,-6.894346)">
    <path
       style="color:#000000;font-style:normal;font-variant:normal;font-weight:normal;font-stretch:normal;font-size:medium;line-height:normal;font-family:sans-serif;font-variant-ligatures:normal;font-variant-position:normal;font-variant-caps:normal;font-variant-numeric:normal;font-variant-alternates:normal;font-variant-east-asian:normal;font-feature-settings:normal;font-variation-settings:normal;text-indent:0;text-align:start;text-decoration:none;text-decoration-line:none;text-decoration-style:solid;text-decoration-color:#000000;letter-spacing:normal;word-spacing:normal;text-transform:none;writing-mode:lr-tb;direction:ltr;text-orientation:mixed;dominant-baseline:auto;baseline-shift:baseline;text-anchor:start;white-space:normal;shape-padding:0;shape-margin:0;inline-size:0;clip-rule:nonzero;display:inline;overflow:visible;visibility:visible;opacity:1;isolation:auto;mix-blend-mode:normal;color-interpolation:sRGB;color-interpolation-filters:linearRGB;solid-color:#000000;solid-opacity:1;vector-effect:none;fill:#ff0000;fill-opacity:1;fill-rule:nonzero;stroke:none;stroke-width:0.999994;stroke-linecap:round;stroke-linejoin:miter;stroke-miterlimit:4;stroke-dasharray:none;stroke-dashoffset:0;stroke-opacity:1;color-rendering:auto;image-rendering:auto;shape-rendering:auto;text-rendering:auto;enable-background:accumulate;stop-color:#000000;stop-opacity:1"
       d="m 53.164828,6.9035608 c -0.669804,-0.036933 -1.373566,0.1213569 -1.953178,0.5798244 -0.882934,0.3135537 -1.567268,0.9640424 -1.982621,1.7314208 -0.464133,0.4826675 -0.659756,1.060381 -0.800901,1.548211 -0.14499,0.501114 -0.260864,0.930198 -0.416155,1.189848 l -0.0373,0.06241 -0.02552,0.07046 c -1.011792,2.773943 -1.980818,5.557527 -3.030861,8.282631 l -0.0059,0.01812 -0.0059,0.01812 c -0.537944,1.628828 -1.065751,3.260958 -1.719582,4.771473 l 0.0903,-0.155023 c -0.324272,0.435876 -0.365074,0.885677 -0.410265,1.161662 -0.04519,0.275985 -0.07736,0.367251 -0.121706,0.416749 l -0.131521,0.146969 -0.0471,0.191262 c -0.262563,1.094358 -0.924162,2.147667 -1.256315,3.563504 l 0.13152,-0.285886 c -0.467878,0.637337 -0.634406,1.344948 -0.775381,1.960934 -0.140977,0.615987 -0.26113,1.1519 -0.478971,1.544186 l -0.02748,0.05033 -0.01963,0.05234 c -1.265808,3.33936 -2.468005,6.697382 -3.643314,10.068411 l 0.01178,-0.02618 c -0.386321,0.990788 -0.336291,2.097794 0.08049,3.040052 0.413125,0.934013 1.250346,1.719709 2.371294,1.898523 1.600303,0.341093 3.320539,-0.290055 4.232213,-1.771686 l 0.04123,-0.06845 0.02748,-0.07449 c 1.093077,-3.007476 1.998102,-6.074641 3.130974,-8.995333 0.0463,-0.100987 0.04613,-0.09501 0.141334,-0.126837 0.09801,-0.03276 0.30967,-0.05209 0.58301,-0.03423 0.546679,0.03575 1.275817,0.246648 2.08666,0.01812 l -0.21004,0.02819 c 3.968016,0.05573 7.920321,-0.183679 11.746547,0.124823 0.470028,1.290687 0.901856,2.62613 1.403539,3.962134 l 0.04711,0.126837 0.08637,0.100668 c 0.01388,0.01648 0.05344,0.124203 0.104039,0.428828 0.05061,0.304627 0.139327,0.824848 0.565342,1.226087 l -0.200226,-0.312058 c 0.49314,1.423783 0.699918,3.651728 2.493001,4.872136 l 0.01767,0.0101 0.01767,0.0101 c 1.027627,0.621641 2.299639,0.692651 3.407755,0.297965 1.102388,-0.392646 2.082218,-1.371652 2.196588,-2.762219 0.158499,-1.182191 -0.153855,-2.235146 -0.514244,-3.16294 -0.364066,-0.937263 -0.767648,-1.779744 -0.934385,-2.585051 l -0.01178,-0.05637 -0.01963,-0.05435 c -1.8473,-5.08007 -3.69655,-10.165898 -5.484659,-15.258644 l -0.002,-0.0101 -0.0039,-0.0081 c -1.190598,-3.155554 -2.281556,-6.377685 -3.48626,-9.569096 v -0.0021 C 59.769525,13.181428 59.148847,11.097241 58.074273,9.1644257 l -0.0059,-0.014091 -0.0079,-0.012081 C 56.975487,7.352718 54.942198,6.8150399 53.1648,6.9035134 Z m 0.398488,9.3033642 c 0.161994,0.522386 0.350091,0.888154 0.561416,1.522039 l -0.03925,-0.207368 c 0.0322,0.592591 0.294621,1.015298 0.457377,1.312658 0.162757,0.297359 0.234861,0.461079 0.23556,0.646263 v 0.06241 l 0.0098,0.06039 c 0.08555,0.531451 0.322858,0.905086 0.463266,1.161662 0.140407,0.256576 0.190646,0.374368 0.19041,0.547612 v 0.150995 l 0.05497,0.140931 c 0.324557,0.821247 0.509135,1.789806 0.828384,2.762218 l 0.05889,0.179182 0.133483,0.130864 c 0.08938,0.08818 0.188676,0.325171 0.28267,0.71874 0.09399,0.39357 0.172794,0.909914 0.498601,1.42339 l -0.09619,-0.215422 c 0.482591,1.799212 1.187281,3.403213 1.576282,5.007025 -0.111405,0.0054 -0.171249,0.01892 -0.339596,0.0061 -0.601374,-0.04598 -1.338826,-0.269445 -2.147515,-0.02214 l 0.239486,-0.03222 c -2.738113,-0.08937 -5.446904,0.06282 -8.016861,-0.150995 0.315086,-1.445919 0.999058,-2.942298 1.427095,-4.668795 l -0.168817,0.324138 c 0.450902,-0.51815 0.564185,-1.119556 0.655639,-1.598544 0.09145,-0.478988 0.169048,-0.861978 0.296412,-1.083145 l 0.02552,-0.0443 0.01963,-0.0463 c 0.496464,-1.200384 0.843631,-2.430046 1.205277,-3.583639 l -0.247337,0.368431 c 0.519267,-0.424107 0.551887,-1.039054 0.581046,-1.354937 0.02915,-0.315883 0.05612,-0.359199 0.053,-0.356351 l 0.168817,-0.153008 0.05692,-0.223475 c 0.241371,-0.920612 0.6233,-1.854094 0.975607,-2.784365 z m -33.74384,1.735446 -0.168817,0.0021 0.07655,0.004 c -2.088618,-0.203854 -3.719602,1.3778 -4.344102,3.174941 -3.05e-4,8.79e-4 -0.0017,0.0011 -0.002,0.0021 -0.719735,1.67043 -1.181521,3.391886 -1.866806,4.870123 l 0.03925,-0.0765 c -0.252859,0.418476 -0.303113,0.814969 -0.357264,1.079119 -0.05415,0.264148 -0.09665,0.382481 -0.162928,0.46104 l -0.115816,0.138917 -0.04319,0.177168 c -0.171666,0.694617 -0.430608,1.350413 -0.745936,1.950868 l -0.08834,0.171129 v 0.195288 c 0,0.188567 -0.08285,0.411321 -0.237522,0.748939 -0.154681,0.337619 -0.379928,0.780516 -0.418118,1.367018 l 0.05497,-0.241594 c -1.5234342,3.803897 -2.7187769,7.73313 -4.2734297,11.421269 l -0.052996,0.124824 -0.00784,0.134889 c -0.030362,0.509393 -0.1658819,1.202038 -0.1825587,1.946841 -0.016674,0.744805 0.1076189,1.61397 0.7125668,2.301179 l 0.033368,0.03826 0.037298,0.03222 c 0.7255009,0.633436 1.7003793,0.91873 2.6598556,0.843564 0.954714,-0.07479 1.962425,-0.596779 2.404665,-1.646863 0.856016,-1.648087 1.237975,-3.37381 1.805955,-4.916427 l -0.01571,0.03825 c 0.185224,-0.428639 0.263137,-0.838726 0.359228,-1.167702 0.06351,-0.217441 0.124409,-0.29854 0.186485,-0.408695 3.098929,-0.204708 6.28651,-0.0164 9.502846,-0.02819 0.692126,2.148933 1.31267,4.379795 2.259404,6.518998 l 0.01374,0.03021 0.01571,0.03021 c 0.145741,0.265076 0.321703,0.584476 0.624233,0.875776 0.290034,0.279267 0.741453,0.484334 1.232759,0.507346 0.907371,0.254025 1.873823,0.136577 2.679484,-0.324139 0.857371,-0.490282 1.554036,-1.421176 1.538986,-2.583037 v -0.0443 l -0.0059,-0.04631 c -0.344012,-2.710007 -1.60468,-4.972741 -2.328066,-7.253944 l -0.01571,-0.05235 -0.02356,-0.05033 c -0.364128,-0.760238 -0.486952,-1.782775 -1.050193,-2.822618 l 0.09619,0.376484 c 0,-0.633053 -0.247107,-1.122853 -0.431858,-1.493854 -0.184751,-0.371001 -0.309886,-0.636434 -0.333709,-0.873762 l -0.0098,-0.110731 -0.04122,-0.100668 c -1.162825,-2.944043 -2.15767,-6.009641 -3.309563,-9.003381 l -0.0059,-0.01208 -0.0039,-0.01208 c -0.423089,-1.000431 -0.682572,-2.342288 -1.372221,-3.523232 -0.714682,-1.727885 -2.46501,-2.996629 -4.399066,-2.764232 z m 0.05692,7.50752 c 0.07424,0.294274 0.11502,0.670898 0.316042,1.119382 l -0.06477,-0.24562 c 0.06874,0.698994 0.262109,1.373335 0.673306,1.977041 L 20.70086,28.093326 c 0.608122,1.947759 1.198742,3.874716 1.756877,5.832471 l 0.02158,0.08053 0.03925,0.07449 c 0.129328,0.242263 0.163153,0.540515 0.251263,0.83551 -1.979625,0.125156 -3.975678,0.133289 -5.953756,0.0081 0.02312,-0.08668 0.0095,-0.114492 0.04123,-0.209382 0.13382,-0.400607 0.322093,-0.849721 0.451489,-1.320711 0.914101,-2.680937 1.636969,-5.38947 2.567593,-7.9444 z"
       id="path2623"
       sodipodi:nodetypes="cccsccccccccscccccscccccscccccssccccccscccccscscccccccccccccccscccsccccccscccscccccssccccscccccccscccscccccsscccccscccscccscccccscsccscccccscccccccccccccccccccscc" />
  </g>
</svg>
